<?xml version="1.0" standalone="no"?>
<!DOCTYPE svg PUBLIC "-//W3C//DTD SVG 20010904//EN"
 "http://www.w3.org/TR/2001/REC-SVG-20010904/DTD/svg10.dtd">
<svg version="1.0" xmlns="http://www.w3.org/2000/svg"
 width="221.000000pt" height="289.000000pt" viewBox="0 0 221.000000 289.000000"
 preserveAspectRatio="xMidYMid meet">

<g transform="translate(0.000000,289.000000) scale(0.100000,-0.100000)"
fill="#000000" stroke="none">
<path d="M0 1445 l0 -1445 1105 0 1105 0 0 1445 0 1445 -1105 0 -1105 0 0
-1445z m1270 1375 c263 -33 505 -149 613 -297 85 -116 125 -231 134 -388 14
-251 -93 -469 -295 -596 l-67 -42 36 -12 c52 -18 116 -53 181 -97 147 -99 247
-239 284 -395 25 -109 16 -314 -20 -418 -95 -280 -330 -457 -674 -510 l-42 -7
-125 253 c-69 139 -125 256 -125 260 0 3 28 9 63 12 111 10 195 44 254 103 58
57 73 97 73 190 0 116 -51 204 -149 257 -79 44 -163 57 -366 57 l-181 0 -122
248 c-67 136 -122 250 -122 255 0 4 98 7 218 7 248 0 322 9 409 51 106 51 157
133 157 259 1 86 -21 139 -75 184 -101 85 -171 96 -631 96 l-373 0 -49 98
c-27 53 -86 175 -132 270 l-83 172 562 0 c328 0 598 -4 647 -10z"/>
</g>
</svg>
